<svg width="108" height="108" viewBox="0 0 108 108" fill="none" xmlns="http://www.w3.org/2000/svg">
<path d="M108 54C108 83.8234 83.8234 108 54 108C24.1766 108 0 83.8234 0 54C0 24.1766 24.1766 0 54 0C83.8234 0 108 24.1766 108 54ZM10.8 54C10.8 77.8587 30.1413 97.2 54 97.2C77.8587 97.2 97.2 77.8587 97.2 54C97.2 30.1413 77.8587 10.8 54 10.8C30.1413 10.8 10.8 30.1413 10.8 54Z" fill="#0052E9" fill-opacity="0.24"/>
<path d="M54 6.7203C54 3.00878 57.0203 -0.0430915 60.7031 0.417629C67.6349 1.2848 74.3547 3.49174 80.48 6.93825C88.5643 11.487 95.3405 18.0415 100.155 25.9701C104.97 33.8986 107.662 42.9338 107.97 52.2048C108.279 61.4758 106.194 70.6698 101.916 78.9008C97.6386 87.1318 91.313 94.1222 83.5489 99.1981C75.7848 104.274 66.844 107.264 57.5884 107.881C48.3328 108.497 39.0745 106.719 30.7059 102.717C24.3651 99.6855 18.697 95.4548 14.0035 90.2805C11.5098 87.5315 12.2715 83.3059 15.3088 81.1728C18.3461 79.0397 22.5028 79.8218 25.1076 82.4657C28.3949 85.8023 32.2476 88.5565 36.5038 90.5916C42.7895 93.5971 49.7434 94.9327 56.6953 94.4697C63.6471 94.0068 70.3625 91.7608 76.1942 87.9483C82.0258 84.1358 86.777 78.8853 89.9897 72.703C93.2025 66.5207 94.7686 59.615 94.537 52.6516C94.3054 45.6882 92.2839 38.9019 88.6673 32.9467C85.0508 26.9916 79.9612 22.0685 73.8891 18.6519C69.7776 16.3385 65.3094 14.7686 60.6897 13.9961C57.029 13.3839 54 10.4318 54 6.7203Z" fill="#3374ED"/>
</svg>
